<?xml version="1.0" encoding="iso-8859-1"?>
<!-- Generator: Adobe Illustrator 19.0.0, SVG Export Plug-In . SVG Version: 6.00 Build 0)  -->
<svg version="1.1" id="Layer_1" xmlns="http://www.w3.org/2000/svg" xmlns:xlink="http://www.w3.org/1999/xlink" x="0px" y="0px"
	 viewBox="0 0 512 512" style="enable-background:new 0 0 512 512;" xml:space="preserve">
<g>
	<g>
		<path d="M397.546,212.32h-0.553v-71.326C396.994,63.249,333.744,0,256,0S115.006,63.249,115.006,140.994v71.326h-0.553
			c-14.329,0-25.987,11.658-25.987,25.987v106.16C88.466,436.845,163.621,512,256,512s167.533-75.155,167.533-167.534v-106.16
			C423.533,223.977,411.876,212.32,397.546,212.32z M131.594,140.994c0-68.598,55.808-124.406,124.406-124.406
			s124.406,55.808,124.406,124.406v71.326h-18.799v-71.326c0-58.232-47.375-105.607-105.607-105.607S150.393,82.762,150.393,140.994
			v71.326h-18.799V140.994z M345.019,140.994v71.326H166.981v-71.326c0-49.086,39.934-89.019,89.019-89.019
			S345.019,91.908,345.019,140.994z M406.946,344.466c0,83.232-67.714,150.946-150.946,150.946s-150.946-67.715-150.946-150.946
			v-106.16c0-5.183,4.216-9.4,9.4-9.4h283.093c5.183,0,9.4,4.217,9.4,9.4V344.466z"/>
	</g>
</g>
<g>
	<g>
		<path d="M256,300.786c-19.207,0-34.834,15.626-34.834,34.834c0,16.35,11.325,30.096,26.54,33.828v28.098
			c0,4.58,3.713,8.294,8.294,8.294c4.58,0,8.294-3.713,8.294-8.294v-28.098c15.215-3.731,26.54-17.479,26.54-33.828
			C290.834,316.413,275.207,300.786,256,300.786z M256,353.866c-10.061,0-18.246-8.185-18.246-18.246s8.185-18.246,18.246-18.246
			s18.246,8.185,18.246,18.246S266.061,353.866,256,353.866z"/>
	</g>
</g>
<g>
	<g>
		<path d="M379.853,318.479c-4.58,0-8.294,3.713-8.294,8.294v17.693c0,20.984-5.707,41.545-16.503,59.458
			c-2.364,3.924-1.1,9.02,2.822,11.385c1.339,0.807,2.815,1.192,4.274,1.192c2.811,0,5.554-1.43,7.112-4.013
			c12.353-20.499,18.883-44.02,18.883-68.022v-17.693C388.147,322.193,384.433,318.479,379.853,318.479z"/>
	</g>
</g>
<g>
	<g>
		<path d="M206.51,448.884c-32.118-15.288-55.818-45.065-63.398-79.652c-0.981-4.473-5.401-7.308-9.877-6.325
			c-4.474,0.981-7.306,5.403-6.325,9.877c8.67,39.556,35.761,73.603,72.472,91.077c1.151,0.547,2.364,0.807,3.559,0.807
			c3.1,0,6.073-1.746,7.494-4.731C212.403,455.801,210.645,450.852,206.51,448.884z"/>
	</g>
</g>
<g>
	<g>
		<path d="M379.853,265.396c-4.58,0-8.294,3.713-8.294,8.294v17.7c0,4.58,3.713,8.294,8.294,8.294c4.58,0,8.294-3.713,8.294-8.294
			v-17.7C388.147,269.11,384.433,265.396,379.853,265.396z"/>
	</g>
</g>
<g>
</g>
<g>
</g>
<g>
</g>
<g>
</g>
<g>
</g>
<g>
</g>
<g>
</g>
<g>
</g>
<g>
</g>
<g>
</g>
<g>
</g>
<g>
</g>
<g>
</g>
<g>
</g>
<g>
</g>
</svg>
