<?xml version="1.0" encoding="iso-8859-1"?>
<!-- Generator: Adobe Illustrator 19.0.0, SVG Export Plug-In . SVG Version: 6.00 Build 0)  -->
<svg version="1.1" id="Layer_1" width="40" xmlns="http://www.w3.org/2000/svg" xmlns:xlink="http://www.w3.org/1999/xlink" x="0px" y="0px"
	 viewBox="0 0 511.999 511.999" style="enable-background:new 0 0 511.999 511.999;" xml:space="preserve">
<g>
	<g>
		<path d="M507.854,154.918L259.873,18.101c-2.41-1.33-5.335-1.33-7.745,0L4.146,154.918c-3.877,2.139-5.286,7.015-3.147,10.892
			c2.139,3.877,7.015,5.285,10.892,3.147l30.866-17.03v334.952c0,4.427,3.589,8.017,8.017,8.017h410.453
			c4.427,0,8.017-3.589,8.017-8.017V151.927l30.866,17.03c1.227,0.678,2.556,0.999,3.865,0.999c2.826,0,5.566-1.496,7.027-4.145
			C513.139,161.933,511.73,157.057,507.854,154.918z M453.209,162.217l-22.345-12.329c-3.876-2.139-8.753-0.73-10.892,3.147
			c-2.139,3.877-0.73,8.753,3.147,10.892l30.09,16.601v298.334H58.789V180.529l197.21-108.805l141.52,78.079
			c3.878,2.139,8.753,0.73,10.892-3.147s0.73-8.753-3.147-10.892L259.873,55.548c-2.41-1.33-5.335-1.33-7.745,0L58.789,162.217
			V143.08l197.21-108.805l197.21,108.805V162.217z"/>
	</g>
</g>
<g>
	<g>
		<path d="M340.976,274.955v-36.058c0-46.856-38.121-84.977-84.977-84.977s-84.977,38.121-84.977,84.977v36.058
			c-9.93,3.354-17.102,12.752-17.102,23.8v42.755c0,56.286,45.792,102.079,102.079,102.079s102.079-45.792,102.079-102.079v-42.755
			C358.078,287.707,350.907,278.31,340.976,274.955z M187.056,238.896c0-38.015,30.928-68.943,68.943-68.943
			c38.015,0,68.943,30.928,68.943,68.943v34.739H187.056V238.896z M342.044,341.51c0,47.446-38.6,86.045-86.045,86.045
			s-86.045-38.6-86.045-86.045v-42.755c0-5.01,4.076-9.086,9.086-9.086h153.92c5.01,0,9.086,4.076,9.086,9.086V341.51z"/>
	</g>
</g>
<g>
	<g>
		<path d="M255.999,316.391c-13.851,0-25.119,11.268-25.119,25.119c0,11.048,7.172,20.446,17.102,23.8v10.405
			c0,4.427,3.589,8.017,8.017,8.017c4.427,0,8.017-3.589,8.017-8.017v-10.405c9.931-3.354,17.102-12.752,17.102-23.8
			C281.118,327.659,269.85,316.391,255.999,316.391z M255.999,350.595c-5.01,0-9.086-4.076-9.086-9.086s4.076-9.086,9.086-9.086
			c5.01,0,9.086,4.076,9.086,9.086S261.009,350.595,255.999,350.595z"/>
	</g>
</g>
<g>
	<g>
		<path d="M315.857,307.84c-4.427,0-8.017,3.589-8.017,8.017v17.102c0,4.427,3.589,8.017,8.017,8.017
			c4.427,0,8.017-3.589,8.017-8.017v-17.102C323.873,311.429,320.285,307.84,315.857,307.84z"/>
	</g>
</g>
<g>
	<g>
		<path d="M313.537,359.923c-4.001-1.901-8.782-0.197-10.681,3.801c-5.118,10.772-13.869,19.523-24.64,24.641
			c-4,1.899-5.7,6.682-3.801,10.681c1.372,2.889,4.248,4.579,7.247,4.579c1.152,0,2.324-0.25,3.434-0.778
			c14.096-6.697,25.546-18.148,32.243-32.244C319.238,366.605,317.536,361.823,313.537,359.923z"/>
	</g>
</g>
<g>
</g>
<g>
</g>
<g>
</g>
<g>
</g>
<g>
</g>
<g>
</g>
<g>
</g>
<g>
</g>
<g>
</g>
<g>
</g>
<g>
</g>
<g>
</g>
<g>
</g>
<g>
</g>
<g>
</g>
</svg>
