<?xml version="1.0" encoding="iso-8859-1"?>
<!-- Generator: Adobe Illustrator 19.0.0, SVG Export Plug-In . SVG Version: 6.00 Build 0)  -->
<svg version="1.1" id="Layer_1" width="40" xmlns="http://www.w3.org/2000/svg" xmlns:xlink="http://www.w3.org/1999/xlink" x="0px" y="0px"
	 viewBox="0 0 511.999 511.999" style="enable-background:new 0 0 511.999 511.999;" xml:space="preserve">
<g>
	<g>
		<path d="M247.448,427.561c-4.427,0-8.017,3.589-8.017,8.017v17.099c0,4.427,3.589,8.017,8.017,8.017s8.017-3.589,8.017-8.017
			v-17.099C255.465,431.15,251.876,427.561,247.448,427.561z"/>
	</g>
</g>
<g>
	<g>
		<path d="M247.448,205.228c-4.427,0-8.017,3.589-8.017,8.017v188.126c0,4.427,3.589,8.017,8.017,8.017s8.017-3.589,8.017-8.017
			V213.244C255.465,208.817,251.876,205.228,247.448,205.228z"/>
	</g>
</g>
<g>
	<g>
		<path d="M290.204,34.205h-68.409c-9.136,0-16.568,7.432-16.568,16.568v25.653c0,9.136,7.432,16.568,16.568,16.568h68.409
			c9.136,0,16.568-7.432,16.568-16.568V50.772C306.772,41.637,299.34,34.205,290.204,34.205z M290.739,76.426
			c0,0.295-0.239,0.534-0.534,0.534h-68.409c-0.295,0-0.534-0.239-0.534-0.534V50.772c0-0.295,0.239-0.534,0.534-0.534h68.409
			c0.295,0,0.534,0.239,0.534,0.534V76.426z"/>
	</g>
</g>
<g>
	<g>
		<path d="M332.96,0H179.039c-18.566,0-33.67,15.105-33.67,33.67v91.988c0,8.994,3.502,17.449,9.862,23.807l30.233,30.233
			c4.744,4.745,11.052,7.357,17.762,7.357h2.002v282.722c0,2.126,0.844,4.165,2.348,5.668l34.205,34.205
			c1.503,1.504,3.542,2.348,5.668,2.348h17.101c2.126,0,4.164-0.844,5.668-2.348l34.206-34.205c1.504-1.503,2.348-3.542,2.348-5.668
			v-22.333l14.754-14.754c1.504-1.503,2.348-3.542,2.348-5.668v-34.205c0-2.126-0.844-4.165-2.348-5.668l-11.434-11.433
			l11.434-11.434c1.504-1.503,2.348-3.542,2.348-5.668v-8.551c0-2.126-0.844-4.165-2.348-5.668l-14.754-14.754V187.056h2.002
			c6.711,0,13.018-2.613,17.762-7.357l30.233-30.234c6.36-6.359,9.862-14.815,9.862-23.807V33.67C366.63,15.105,351.525,0,332.96,0z
			 M345.431,138.129l-30.234,30.234c-1.716,1.716-3.998,2.66-6.424,2.66h-10.018c-4.427,0-8.017,3.589-8.017,8.017V332.96
			c0,2.126,0.844,4.165,2.348,5.668l14.754,14.754v1.91l-14.754,14.754c-3.131,3.131-3.131,8.207,0,11.337l14.754,14.755v27.564
			l-14.754,14.754c-1.504,1.503-2.348,3.542-2.348,5.668v22.333l-29.51,29.509h-10.46l-29.508-29.508V179.04
			c0-4.427-3.589-8.017-8.017-8.017h-10.019c-2.427,0-4.708-0.945-6.425-2.662l-30.233-30.233c-3.331-3.332-5.166-7.76-5.166-12.471
			V33.67c0-9.725,7.912-17.637,17.637-17.637h153.921c9.725,0,17.637,7.912,17.637,17.637v91.988h0.001
			C350.597,130.369,348.762,134.798,345.431,138.129z"/>
	</g>
</g>
<g>
</g>
<g>
</g>
<g>
</g>
<g>
</g>
<g>
</g>
<g>
</g>
<g>
</g>
<g>
</g>
<g>
</g>
<g>
</g>
<g>
</g>
<g>
</g>
<g>
</g>
<g>
</g>
<g>
</g>
</svg>
